# xmcd CD database file
#
# Track frame offsets:
#	150
#	22462
#	41295
#	58742
#	75797
#	97722
#	107627
#	122401
#	140611
#	160045
#	176346
#	194610
#	208329
#	226430
#
# Disc length: 3234 seconds
#
# Revision: 0
# Processed by: cddbd v1.5.2PL0 Copyright (c) Steve Scherf et al.
# Submitted via: CDex 1.70beta2
#
DISCID=b30ca00e
DTITLE=Carl, Jeff, and The Hygraders - Cdn. - ON - Trad. Cty. - Jeff Carl
DYEAR=1900
DGENRE=Country
TTITLE0=You and Me
TTITLE1=Auction
TTITLE2=I Still Think
TTITLE3=Duck Blind
TTITLE4=Puppet On A String
TTITLE5=Always Be The Memories
TTITLE6=Bring The Rafter Down
TTITLE7=I Can No Longer Bend
TTITLE8=Left Me In The Snow
TTITLE9=You Know
TTITLE10=I Hate The Cold
TTITLE11=Oasis
TTITLE12=Play For You and Me
TTITLE13=The Island Of St. Joe
EXTD=
EXTT0=
EXTT1=
EXTT2=
EXTT3=
EXTT4=
EXTT5=
EXTT6=
EXTT7=
EXTT8=
EXTT9=
EXTT10=
EXTT11=
EXTT12=
EXTT13=
PLAYORDER=
